<?xml version="1.0" standalone="no"?>
<!DOCTYPE svg PUBLIC "-//W3C//DTD SVG 20010904//EN"
 "http://www.w3.org/TR/2001/REC-SVG-20010904/DTD/svg10.dtd">
<svg version="1.0" xmlns="http://www.w3.org/2000/svg"
 width="600.000000pt" height="600.000000pt" viewBox="0 0 600.000000 600.000000"
 preserveAspectRatio="xMidYMid meet">
<metadata>
Created by potrace 1.11, written by Peter Selinger 2001-2013
</metadata>
<g transform="translate(0.000000,600.000000) scale(0.100000,-0.100000)"
fill="#000000" stroke="none">
<path d="M2407 5446 c-101 -36 -184 -130 -236 -266 -17 -44 -31 -83 -31 -87 0
-5 -15 -43 -32 -85 l-33 -77 -107 -54 c-282 -143 -555 -367 -762 -625 l-59
-73 -28 28 c-56 56 -109 94 -109 77 0 -4 -9 1 -20 11 -11 10 -20 13 -20 8 0
-6 7 -16 15 -23 8 -6 17 -21 21 -33 3 -11 21 -41 39 -66 49 -69 50 -80 11
-146 -20 -32 -38 -60 -41 -63 -3 -3 -50 39 -105 93 -91 89 -102 97 -116 83 -9
-8 -18 -33 -21 -56 -8 -57 30 -133 104 -213 l61 -64 -24 -52 -23 -53 -66 25
c-36 14 -81 25 -101 25 -32 0 -34 -2 -24 -21 14 -25 96 -110 127 -130 l22 -15
-25 -78 c-60 -189 -94 -432 -94 -667 l0 -152 -64 -67 c-107 -110 -103 -136 32
-251 l99 -84 37 -115 c20 -63 39 -120 42 -126 6 -14 -36 -7 -253 45 l-163 38
0 -32 c0 -44 29 -124 84 -230 25 -49 46 -98 46 -109 0 -10 -33 -59 -73 -110
-41 -50 -102 -131 -136 -181 l-62 -90 28 -8 c15 -4 71 -10 123 -13 52 -3 118
-11 146 -19 58 -17 56 -8 24 -126 -15 -50 -9 -86 17 -118 14 -16 37 -23 98
-32 44 -6 148 -26 230 -45 159 -36 449 -85 754 -129 154 -22 195 -32 245 -57
341 -172 766 -257 1152 -229 307 23 553 86 820 211 65 30 122 50 160 54 124
15 468 76 625 111 194 42 471 114 482 125 5 4 1 34 -7 68 -27 101 -28 98 72
116 48 9 139 16 204 16 64 0 123 3 132 6 28 11 -9 56 -163 202 -170 161 -165
135 -66 342 56 118 99 229 92 236 -6 6 -214 -20 -292 -35 -49 -10 -91 -18 -92
-17 -1 1 14 51 33 111 20 61 38 116 40 124 3 8 12 11 24 8 19 -5 20 -2 14 30
-7 38 -4 40 50 18 17 -8 18 -5 12 29 -8 40 -7 40 52 18 10 -3 11 6 7 39 -11
80 -16 94 -53 138 l-36 44 -1 246 c-1 269 -13 375 -65 576 -41 158 -92 293
-161 424 l-60 115 35 97 c66 185 136 462 121 477 -15 15 -90 -41 -209 -158
l-133 -130 -56 68 c-69 84 -228 238 -323 314 -83 66 -232 165 -314 209 -57 30
-58 32 -113 147 -31 64 -61 146 -68 181 -21 108 -56 135 -233 183 -60 16 -136
40 -168 54 -68 28 -140 31 -243 9 -38 -8 -110 -21 -160 -30 l-90 -16 -206 46
c-221 48 -321 56 -392 31z m273 -65 c0 -3 15 -6 33 -7 17 -1 41 -3 52 -6 11
-3 40 -9 65 -13 25 -4 50 -10 55 -13 16 -10 38 -14 68 -13 15 0 27 -3 27 -7 0
-4 14 -7 30 -7 17 0 30 3 30 7 0 4 11 7 24 6 l25 -2 -19 -31 c-30 -49 -52
-148 -42 -187 8 -30 9 -27 20 46 7 43 22 96 34 117 32 58 39 47 9 -13 -23 -47
-26 -65 -26 -158 0 -75 4 -114 15 -135 9 -17 13 -41 10 -55 l-6 -25 -309 -6
c-171 -4 -325 -10 -343 -14 -43 -10 -109 11 -115 37 -4 14 -2 18 10 14 36 -14
63 -17 63 -8 0 5 -11 13 -24 16 -14 3 -48 28 -77 54 l-52 48 16 55 c14 47 35
160 39 206 2 18 26 24 35 9 5 -7 18 -15 30 -18 17 -5 27 1 42 26 18 27 26 25
23 -5 -1 -4 14 -2 33 4 19 6 35 14 35 19 0 4 7 8 16 8 24 0 -1 28 -29 33 -18
3 -16 5 13 13 38 11 190 15 190 5z m815 -15 c56 -26 116 -87 141 -143 11 -24
17 -67 18 -113 1 -62 -4 -85 -26 -130 -72 -150 -216 -201 -365 -130 -35 16
-63 26 -63 23 0 -4 -11 4 -25 17 -14 13 -25 28 -25 34 1 6 10 0 20 -13 11 -13
20 -19 20 -14 0 13 -35 44 -42 38 -10 -10 -41 68 -47 119 -13 102 15 200 70
244 16 13 27 27 24 32 -3 4 3 14 12 21 12 10 14 10 9 2 -10 -17 -9 -17 48 12
67 34 160 35 231 1z m-345 -20 c0 -2 -8 -10 -17 -17 -16 -13 -17 -12 -4 4 13
16 21 21 21 13z m525 -41 c28 -9 51 -16 52 -16 56 1 128 -58 119 -98 -42 -194
-27 -357 41 -448 l23 -32 -40 14 c-23 8 -71 18 -107 21 -68 7 -206 55 -202 70
1 5 22 32 47 59 25 28 40 40 33 27 -7 -13 -11 -28 -8 -35 7 -22 76 133 83 189
7 63 -20 188 -40 181 -9 -3 -56 63 -56 79 0 5 -1 6 55 -11z m12 -137 c-3 -8
-6 -5 -6 6 -1 11 2 17 5 13 3 -3 4 -12 1 -19z m10 -90 c-2 -13 -4 -3 -4 22 0
25 2 35 4 23 2 -13 2 -33 0 -45z m-10 -60 c-3 -8 -6 -5 -6 6 -1 11 2 17 5 13
3 -3 4 -12 1 -19z m-1437 -53 c0 -17 -2 -17 -10 -5 -5 8 -10 24 -10 35 0 17 2
17 10 5 5 -8 10 -24 10 -35z m50 -65 c6 -11 9 -20 7 -20 -2 0 -12 9 -22 20
-10 11 -13 20 -7 20 6 0 16 -9 22 -20z m840 -12 l26 -31 -20 -37 c-19 -35 -19
-38 -3 -54 9 -10 17 -22 17 -28 0 -6 3 -8 7 -4 4 4 10 31 13 59 l5 52 17 -35
c27 -58 31 -130 9 -164 -15 -22 -17 -35 -10 -53 13 -34 11 -53 -5 -53 -28 0
-39 30 -39 104 l1 73 -37 -1 -36 -1 -11 -72 c-9 -61 -8 -73 4 -78 10 -3 12
-13 8 -30 -6 -24 -5 -25 48 -25 40 0 60 -5 77 -20 l24 -21 -30 5 c-16 3 -68
12 -115 20 -47 8 -143 22 -215 31 -71 9 -138 21 -148 26 -10 5 -22 7 -28 3 -6
-3 -34 4 -62 17 -48 21 -66 23 -247 23 -240 1 -282 -9 -370 -90 -75 -70 -130
-93 -130 -54 0 16 7 20 33 20 23 0 41 8 57 25 28 30 13 33 -44 10 -33 -14 -36
-14 -36 2 0 25 9 35 60 69 118 79 215 99 434 91 89 -3 169 -9 178 -12 12 -5
17 3 22 32 13 83 67 129 164 139 26 3 99 -3 167 -15 137 -23 132 -25 163 62 9
26 19 47 21 47 3 0 16 -14 31 -32z m-1087 -16 c-2 -10 -33 -32 -68 -50 -236
-116 -498 -326 -683 -547 -66 -79 -122 -129 -122 -109 0 14 116 151 204 243
171 177 353 314 561 423 61 32 111 58 112 58 0 0 -1 -8 -4 -18z m1527 -6 c0
-2 -8 -10 -17 -17 -16 -13 -17 -12 -4 4 13 16 21 21 21 13z m-333 -26 c14 -11
32 -20 39 -20 7 0 16 -5 19 -11 9 -14 -66 18 -85 36 -21 22 -2 18 27 -5z
m1003 -138 c52 -36 129 -93 170 -127 81 -67 258 -247 304 -307 41 -55 22 -68
-22 -16 -176 207 -381 385 -579 502 -46 26 -83 55 -83 63 0 19 76 -22 210
-115z m-765 108 c-3 -5 -12 -10 -18 -10 -7 0 -6 4 3 10 19 12 23 12 15 0z
m-128 -16 c-3 -3 -12 -4 -19 -1 -8 3 -5 6 6 6 11 1 17 -2 13 -5z m56 -1 c-7
-2 -21 -2 -30 0 -10 3 -4 5 12 5 17 0 24 -2 18 -5z m57 -78 c6 -8 9 -19 5 -25
-4 -7 2 -9 19 -4 32 8 113 -18 193 -63 71 -39 97 -76 95 -137 -1 -23 3 -43 10
-48 10 -6 9 -8 -2 -8 -9 0 -22 -16 -29 -35 -18 -52 -44 -54 -164 -12 -88 31
-131 43 -274 73 -18 3 -23 11 -23 34 0 23 -5 30 -19 30 -11 0 -23 5 -26 10 -4
6 7 10 24 10 20 0 31 5 31 14 0 22 -24 35 -58 31 -22 -3 -32 0 -32 10 0 10 10
12 41 8 41 -6 65 9 51 31 -3 6 -7 22 -9 36 -2 22 2 26 29 28 17 2 36 6 42 11
27 22 80 25 96 6z m-180 -19 c0 -2 -11 -1 -25 2 -14 2 -22 8 -19 13 4 8 44 -6
44 -15z m995 -158 l69 -51 -90 -32 c-141 -51 -134 -50 -134 -22 0 13 -14 41
-30 62 -17 21 -29 40 -27 42 7 6 122 52 133 53 6 0 42 -23 79 -52z m-305 -102
c0 -42 -22 -50 -87 -33 l-58 15 60 -2 c58 -1 60 0 63 27 4 32 22 26 22 -7z
m1004 -78 c-13 -40 -24 -77 -24 -83 0 -5 -11 -31 -25 -58 -14 -26 -22 -47 -18
-47 5 0 0 -5 -9 -11 -10 -5 -18 -19 -18 -30 0 -13 4 -18 13 -13 6 4 -4 -7 -23
-25 -31 -30 -39 -33 -77 -27 -25 3 -43 2 -43 -4 0 -6 5 -10 11 -10 5 0 7 -4 4
-10 -5 -8 21 -15 46 -12 4 1 5 -7 2 -17 -3 -13 1 -21 14 -24 13 -3 10 -5 -8
-6 -28 -1 -103 -30 -80 -31 9 0 11 -8 7 -24 -5 -20 -2 -25 16 -28 49 -7 3
-108 -49 -108 -14 0 -23 -6 -23 -15 0 -8 9 -15 20 -15 11 0 20 -5 20 -11 0 -5
-5 -7 -11 -4 -6 4 -20 -3 -31 -15 -19 -21 -27 -22 -87 -16 -36 4 -81 9 -98 12
-35 7 -48 -12 -15 -22 9 -3 27 -10 39 -16 11 -6 26 -7 32 -4 6 4 11 2 11 -4 0
-8 9 -10 24 -6 18 4 27 0 38 -17 26 -40 29 -57 11 -64 -9 -4 -19 -1 -21 5 -2
7 -10 12 -18 12 -17 0 -19 -46 -1 -53 6 -3 2 -6 -10 -6 -15 -1 -21 3 -17 13 4
12 -3 13 -38 9 -61 -8 -74 -8 -157 1 -67 8 -76 6 -88 -10 -8 -11 -16 -18 -18
-16 -12 6 -22 1 -22 -11 0 -10 13 -13 46 -10 168 11 226 11 244 -2 11 -7 25
-11 31 -9 7 3 21 -4 31 -16 11 -12 13 -20 6 -20 -7 0 -10 -4 -7 -9 3 -5 -12
-44 -33 -87 -21 -44 -55 -114 -76 -157 -20 -43 -40 -76 -42 -73 -10 9 -83 -67
-83 -87 0 -10 -19 -36 -42 -56 -101 -87 -224 -197 -230 -205 -6 -9 -128 8
-149 20 -4 2 0 23 9 47 13 35 23 46 56 60 23 10 51 31 63 49 19 27 21 41 17
106 -4 66 -2 79 21 118 14 25 33 44 43 44 11 0 13 3 5 8 -7 5 -9 19 -4 42 8
38 20 41 86 26 103 -24 102 -3 -1 23 l-69 17 -3 40 c-2 23 5 58 15 81 31 71
530 672 677 815 72 70 132 128 132 128 1 0 -9 -32 -22 -72z m-1986 42 c23 -1
42 -5 42 -9 0 -4 16 -5 35 -3 21 3 35 0 35 -7 0 -6 11 -8 29 -5 27 6 28 4 34
-37 3 -24 5 -44 4 -45 -1 -1 -22 2 -47 6 -56 11 -167 13 -173 3 -3 -5 11 -9
31 -10 46 -3 131 -23 136 -32 2 -3 -60 -7 -137 -8 -221 -3 -415 -47 -636 -145
-109 -48 -252 -126 -316 -173 -16 -12 -37 -26 -45 -30 -13 -8 -13 -7 0 10 8
11 23 27 33 37 9 10 17 23 17 29 0 5 4 8 9 5 5 -3 12 1 15 10 3 8 10 13 15 10
5 -4 11 -3 13 1 8 19 116 80 142 81 5 0 12 5 16 11 9 16 201 93 216 87 7 -3
14 -1 16 5 2 5 18 10 36 12 17 1 32 5 32 10 0 4 3 6 8 5 4 -1 25 4 47 10 22 6
49 13 60 14 11 2 25 7 31 11 6 3 26 8 43 9 36 3 54 18 22 18 -35 0 -255 -49
-363 -81 -102 -30 -301 -119 -359 -160 -24 -17 -32 -19 -45 -8 -24 19 -46 68
-37 82 4 7 8 16 8 20 0 12 98 86 107 81 5 -3 11 2 14 10 3 9 10 13 15 10 5 -3
9 -1 9 4 0 17 178 101 250 117 8 2 31 9 49 14 26 8 37 8 43 -2 4 -6 8 -8 8 -4
0 10 60 -25 60 -35 0 -4 9 -8 20 -8 29 0 25 15 -12 45 -18 15 -27 24 -20 20 6
-3 12 -1 12 6 0 8 11 10 33 7 17 -3 41 -2 52 2 17 6 252 6 393 0z m272 -46
c14 -3 43 -10 65 -16 58 -15 78 -19 93 -20 6 -1 12 -6 12 -11 0 -5 7 -7 15 -4
15 7 183 -39 201 -54 7 -5 16 -9 20 -7 28 7 122 -38 247 -119 67 -44 120 -107
133 -160 11 -43 -2 -42 -71 6 -123 85 -477 259 -508 248 -5 -1 42 -27 104 -56
103 -48 226 -115 239 -131 3 -3 18 -11 33 -18 42 -18 167 -114 207 -158 30
-34 31 -36 5 -13 -38 33 -200 144 -287 197 -69 42 -262 134 -313 148 -81 23
-212 54 -226 54 -14 0 -19 7 -19 28 -1 15 -7 44 -15 65 l-13 39 26 -7 c15 -4
38 -9 52 -11z m1745 -92 c-28 -127 -80 -252 -227 -547 -135 -269 -200 -387
-122 -220 199 429 298 659 326 756 36 123 49 130 23 11z m-485 53 c7 -9 11
-17 9 -20 -6 -5 -400 -145 -419 -148 -9 -1 -15 6 -15 18 0 16 32 31 195 91
107 40 200 73 206 73 6 1 17 -6 24 -14z m-2646 -82 c-21 -83 -4 -72 -238 -166
l-219 -88 -43 42 c-24 24 -42 44 -40 46 6 7 521 192 534 192 9 1 10 -7 6 -26z
m-766 -80 c-10 -12 -14 -11 -31 6 -18 17 -18 22 -7 36 13 16 16 15 32 -5 14
-18 16 -26 6 -37z m1965 50 c4 -3 35 -7 69 -9 58 -2 113 -9 113 -13 0 -1 14
-4 30 -6 17 -3 71 -16 120 -31 50 -14 98 -29 108 -31 9 -3 17 -10 17 -15 0 -5
4 -7 10 -3 10 6 131 -51 142 -69 4 -6 8 -7 8 -3 0 12 100 -46 237 -138 1 0 5
-27 9 -60 5 -41 4 -56 -4 -51 -6 3 -9 16 -7 29 3 17 -5 26 -38 43 -27 13 -42
27 -42 39 0 24 -77 48 -155 48 -107 0 -190 -7 -190 -15 0 -4 -19 -8 -43 -8
-24 0 -66 -6 -93 -14 -27 -8 -62 -17 -77 -20 -16 -4 -41 -20 -57 -36 -15 -16
-31 -26 -35 -22 -12 12 -24 -21 -14 -40 10 -19 -1 -24 -17 -8 -6 6 -10 3 -10
-10 0 -10 2 -17 5 -15 2 3 13 -3 24 -12 15 -13 21 -15 24 -5 3 7 22 12 47 12
32 0 50 6 67 24 28 27 68 50 76 43 3 -3 -8 -25 -24 -49 -43 -64 -88 -147 -108
-200 -10 -26 -24 -53 -31 -59 -18 -15 -18 -39 0 -39 7 0 25 -9 39 -20 37 -30
51 -24 25 10 -17 24 -19 33 -10 42 10 10 24 0 68 -45 72 -77 118 -97 214 -96
l75 1 -60 12 -60 12 56 6 c31 3 71 15 89 25 18 10 40 22 50 27 9 5 27 24 40
43 12 18 29 33 36 33 20 0 17 -10 -12 -54 -21 -30 -22 -36 -7 -28 10 6 27 20
37 31 11 12 31 21 45 21 14 0 33 5 41 10 12 8 11 10 -6 10 -30 0 -59 36 -84
103 -12 32 -35 74 -52 92 -34 39 -116 81 -177 91 -40 6 -53 18 -28 27 6 2 28
-4 48 -14 36 -18 37 -18 54 1 10 11 26 20 36 20 10 0 20 4 24 9 7 12 69 -5 73
-19 2 -6 10 -10 17 -10 7 0 15 -3 17 -7 2 -5 24 -18 50 -31 26 -13 50 -28 54
-33 4 -6 10 -6 19 1 30 25 46 -185 19 -254 -6 -16 -5 -17 15 -6 22 11 23 11
16 -22 -4 -18 -11 -37 -15 -43 -4 -5 -13 -28 -20 -50 -7 -22 -19 -46 -28 -52
-9 -8 -11 -13 -4 -13 25 0 11 -28 -22 -44 -46 -21 -53 -20 -25 4 l24 21 -40
-19 c-78 -37 -96 -36 -305 18 -49 13 -211 72 -297 109 -169 73 -283 77 -450
18 -54 -19 -136 -49 -183 -66 -108 -38 -292 -75 -336 -67 -18 4 -57 23 -86 43
-49 33 -51 34 -28 8 25 -28 13 -26 -25 4 -15 12 -14 9 3 -10 18 -20 20 -28 10
-32 -7 -3 1 -6 17 -7 17 -1 39 -5 50 -10 27 -11 8 -17 -75 -24 -42 -3 -56 -2
-40 4 l25 8 -27 1 c-27 1 -51 21 -26 21 7 0 0 7 -16 15 -16 9 -35 14 -42 11
-23 -9 -26 78 -4 109 4 6 3 55 -2 110 -17 185 -18 255 0 292 9 19 21 32 29 29
8 -3 12 4 11 22 -1 15 2 35 6 45 7 14 5 16 -10 11 -11 -3 -1 6 21 20 22 14 55
31 73 37 17 6 32 15 32 20 0 6 5 7 10 4 6 -3 10 -2 10 3 0 5 24 19 53 31 28
12 61 26 71 32 20 12 143 59 152 59 3 0 2 -6 -1 -12 -4 -7 0 -5 9 6 8 10 22
16 30 13 8 -3 16 -2 18 3 2 5 14 10 28 12 14 2 31 7 38 12 7 4 19 5 27 2 8 -3
15 0 15 6 0 6 3 9 6 5 3 -3 17 -2 31 4 33 12 96 21 171 24 34 1 65 5 69 8 8 9
138 9 146 0z m-1786 -122 c97 -115 128 -153 131 -161 1 -4 -8 -14 -22 -23 -21
-14 -25 -14 -30 -2 -3 8 -1 17 5 20 5 4 7 11 3 16 -3 5 -20 -1 -37 -13 -22
-15 -28 -17 -18 -5 10 13 11 17 1 17 -9 0 -7 7 5 20 10 11 15 23 12 26 -6 7
-66 -36 -66 -48 -1 -4 12 -22 29 -41 27 -31 28 -35 13 -50 -15 -14 -19 -12
-58 31 -85 95 -155 186 -152 196 9 27 37 13 78 -38 24 -30 50 -55 57 -56 6 0
12 -7 12 -15 0 -19 11 -19 36 -1 10 8 16 18 12 22 -4 4 -2 14 5 22 10 13 8 14
-15 8 -18 -4 -28 -2 -28 4 0 6 -4 8 -10 5 -5 -3 -10 -2 -10 3 0 6 7 12 15 16
8 3 15 10 15 16 0 6 -11 3 -25 -6 -15 -9 -25 -13 -24 -8 3 20 -2 26 -14 18 -7
-5 -1 2 13 15 24 23 24 23 3 18 -13 -3 -23 -1 -23 5 0 6 -6 8 -14 5 -11 -5
-11 0 2 24 9 16 22 29 29 29 7 0 38 -31 70 -69z m3373 63 c0 -3 -53 -65 -118
-137 -64 -73 -146 -167 -182 -209 -64 -78 -80 -90 -80 -64 0 7 -10 26 -21 40
-26 34 -47 11 200 220 169 143 201 167 201 150z m-3515 -24 c-3 -5 -11 -10
-16 -10 -6 0 -7 5 -4 10 3 6 11 10 16 10 6 0 7 -4 4 -10z m-115 -239 c0 -6
-33 22 -73 64 -69 71 -98 88 -112 65 -3 -5 -1 -18 5 -29 11 -21 1 -34 -17 -23
-6 4 -20 25 -31 46 -20 37 -21 57 -6 104 4 15 234 -207 234 -227z m65 139 c3
-5 -6 -30 -21 -56 -19 -32 -30 -42 -38 -34 -7 7 -3 23 14 55 25 46 34 53 45
35z m-134 -101 c46 -47 59 -69 41 -69 -4 0 -34 27 -67 60 -42 42 -54 60 -42
60 10 0 41 -23 68 -51z m239 -19 c0 -4 -18 -14 -40 -23 -22 -8 -40 -13 -40
-10 0 3 10 21 21 40 20 32 22 33 40 17 11 -9 19 -20 19 -24z m3780 -49 c94
-189 164 -398 202 -611 21 -122 37 -493 24 -565 -16 -85 -27 -9 -30 211 -3
245 -19 367 -72 563 -30 110 -97 288 -146 386 -30 60 -38 95 -22 95 2 0 22
-36 44 -79z m-4060 49 c0 -5 -2 -10 -4 -10 -3 0 -8 5 -11 10 -3 6 -1 10 4 10
6 0 11 -4 11 -10z m140 -40 c0 -10 -4 -22 -10 -25 -5 -3 -10 -15 -10 -26 0
-10 -4 -19 -10 -19 -12 0 -12 1 1 55 11 44 29 53 29 15z m359 -37 l-12 -37
-23 30 c-13 16 -24 31 -24 34 0 3 12 13 27 22 24 14 29 15 36 2 5 -8 3 -31 -4
-51z m51 26 c0 -6 -4 -7 -10 -4 -5 3 -10 11 -10 16 0 6 5 7 10 4 6 -3 10 -11
10 -16z m-457 -24 c-3 -9 -8 -14 -10 -11 -3 3 -2 9 2 15 9 16 15 13 8 -4z m79
-32 c3 -27 3 -50 1 -53 -9 -10 -23 28 -23 63 0 54 17 46 22 -10z m297 0 c23
-27 41 -42 41 -35 0 7 4 11 9 7 6 -3 15 3 21 12 8 12 13 14 16 6 3 -7 12 -9
20 -6 17 6 18 -16 2 -52 l-11 -25 -31 27 -30 28 27 -36 c14 -20 23 -40 19 -44
-9 -11 17 4 50 28 l27 20 47 -51 c25 -29 50 -50 54 -47 5 3 12 0 16 -6 4 -8 3
-9 -4 -5 -15 9 -16 -6 -1 -21 7 -7 -2 -20 -32 -43 l-41 -34 -37 45 c-20 24
-57 67 -83 96 -27 29 -48 62 -48 73 0 12 -8 23 -17 27 -22 8 -82 70 -75 78 11
11 22 4 61 -42z m71 22 c0 -8 -9 -19 -20 -25 -23 -12 -24 -11 -10 25 10 26 30
26 30 0z m-437 -34 c16 -13 19 -13 27 -1 7 11 10 8 10 -12 0 -37 -9 -35 -51 9
-32 34 -24 37 14 4z m-65 -49 c-25 -58 -26 -58 -39 -45 -16 16 29 117 46 103
11 -9 9 -20 -7 -58z m2552 58 c-20 -13 -63 -13 -55 0 3 6 21 10 38 10 24 0 28
-3 17 -10z m-1734 -32 c-12 -64 -16 -115 -8 -88 8 24 9 24 16 -10 14 -68 56
-185 77 -215 24 -35 25 -38 -26 138 -26 90 -35 135 -30 155 7 25 10 22 46 -53
21 -44 38 -91 39 -105 1 -34 15 -54 34 -47 12 5 20 -8 35 -61 11 -37 23 -93
26 -124 4 -32 11 -56 15 -53 4 3 10 -9 14 -26 4 -23 0 -38 -14 -56 -15 -19
-20 -40 -20 -82 1 -56 11 -121 25 -153 9 -23 -24 -24 -64 -3 -49 25 -53 71
-17 185 l24 75 4 -45 c4 -37 5 -34 6 20 2 74 -17 167 -42 205 -26 39 -28 27
-7 -40 10 -33 21 -73 25 -90 6 -27 5 -28 -6 -10 -6 11 -17 36 -24 55 -11 30
-14 32 -20 16 -5 -12 1 -34 16 -63 18 -35 21 -50 14 -70 -5 -15 -13 -28 -19
-30 -5 -1 -25 28 -44 65 -31 60 -35 78 -40 174 -3 58 -9 110 -13 114 -5 4 -8
1 -8 -7 0 -17 -84 107 -94 139 -13 39 3 82 37 103 44 26 50 24 43 -13z m2462
-4 c35 -39 29 -80 -24 -163 -29 -44 -50 -68 -54 -61 -10 17 -20 -41 -20 -124
0 -59 -6 -83 -35 -146 -19 -41 -39 -76 -44 -78 -6 -2 -16 8 -23 23 -10 23 -9
33 10 68 12 23 22 51 22 61 0 28 -13 11 -39 -52 l-22 -53 26 -89 c16 -55 23
-98 19 -114 -9 -36 -50 -66 -91 -66 -29 0 -34 3 -28 18 21 52 45 141 45 165 0
15 -7 30 -15 33 -19 8 -19 25 -1 61 8 15 19 48 24 73 l10 45 2 -50 2 -50 10
35 c5 19 14 40 19 46 25 31 113 227 129 288 10 40 20 63 24 55 7 -15 0 37 -10
85 -6 26 -5 28 17 21 13 -4 34 -18 47 -31z m-3087 13 c31 -16 75 -53 118 -99
19 -21 39 -38 45 -38 13 0 46 -36 46 -50 0 -6 4 -10 9 -10 7 0 87 -77 132
-127 9 -10 28 -26 42 -37 15 -10 25 -21 23 -25 -2 -3 14 -19 35 -36 21 -16 38
-34 39 -39 0 -5 22 -30 49 -56 27 -26 56 -59 66 -74 9 -14 24 -26 31 -26 8 0
14 -4 14 -9 0 -6 14 -18 30 -28 27 -15 30 -22 30 -66 l0 -49 -47 41 c-27 22
-88 79 -137 126 -49 47 -90 85 -92 85 -2 0 -50 38 -107 84 -101 84 -116 98
-192 186 -33 38 -34 40 -7 16 31 -29 32 -29 32 -7 0 12 -13 36 -30 52 -16 17
-29 33 -29 37 3 17 -2 32 -8 31 -22 -4 -34 3 -42 24 -10 25 -71 65 -71 46 0
-7 12 -28 27 -48 l26 -36 -27 25 c-39 35 -48 56 -41 91 8 34 6 33 36 16z
m3770 -75 c40 -97 99 -269 99 -292 0 -13 -49 -34 -214 -93 -118 -43 -216 -77
-219 -77 -12 0 90 170 108 179 11 5 14 10 8 10 -8 1 24 76 77 181 50 100 95
178 99 175 5 -3 24 -40 42 -83z m-4126 23 c17 -7 40 -22 53 -34 12 -13 22 -17
22 -9 0 9 3 9 13 -1 10 -10 9 -14 -5 -22 -25 -14 -23 -28 2 -22 12 3 20 2 19
-3 -5 -26 2 -35 23 -29 16 6 20 4 15 -8 -6 -15 15 -42 25 -32 9 9 49 15 44 7
-2 -4 9 -23 25 -41 27 -31 36 -51 24 -51 -9 0 -201 147 -231 177 -7 7 -18 13
-25 13 -15 0 -79 59 -79 73 0 9 25 3 75 -18z m721 -3 c-18 -16 -18 -16 -6 6 6
13 14 21 18 18 3 -4 -2 -14 -12 -24z m-633 -163 c-1 -8 -17 -76 -37 -152 -44
-175 -66 -343 -66 -512 0 -106 -3 -135 -15 -145 -13 -11 -15 5 -15 138 0 218
29 416 91 625 12 42 25 67 32 64 7 -2 11 -10 10 -18z m772 -15 c-16 -13 -23
-22 -14 -19 10 4 26 -10 49 -42 19 -26 49 -64 66 -83 21 -24 33 -49 37 -79 3
-24 2 -40 -2 -35 -4 5 -44 52 -89 106 -89 104 -95 125 -51 159 36 27 39 22 4
-7z m-75 -28 c0 -3 -4 -8 -10 -11 -5 -3 -10 -1 -10 4 0 6 5 11 10 11 6 0 10
-2 10 -4z m-461 -49 c9 -17 19 -23 35 -20 23 5 68 -28 49 -34 -6 -2 -8 -15 -5
-30 4 -24 0 -22 -62 27 -62 49 -86 80 -50 66 8 -3 12 -2 9 4 -3 6 -2 10 3 10
5 0 14 -11 21 -23z m87 -9 l29 -33 -32 29 c-18 17 -33 31 -33 33 0 8 8 1 36
-29z m134 -37 c0 -11 -41 -22 -53 -14 -5 3 1 12 14 19 24 12 39 10 39 -5z
m-31 -69 c33 -33 19 -39 -22 -8 -19 14 -40 26 -48 26 -12 0 -12 2 0 9 18 12
40 3 70 -27z m1586 22 c-27 -9 -77 -25 -109 -37 -47 -17 -55 -22 -40 -29 12
-5 4 -6 -21 -3 -22 3 -34 2 -27 -1 13 -6 7 -24 -9 -24 -6 0 -7 5 -4 10 3 6 0
10 -7 10 -23 1 37 29 129 60 48 16 99 29 113 29 16 0 8 -6 -25 -15z m112 0
c-3 -3 -12 -4 -19 -1 -8 3 -5 6 6 6 11 1 17 -2 13 -5z m50 0 c-3 -3 -12 -4
-19 -1 -8 3 -5 6 6 6 11 1 17 -2 13 -5z m-100 -10 c-3 -3 -12 -4 -19 -1 -8 3
-5 6 6 6 11 1 17 -2 13 -5z m150 0 c-3 -3 -12 -4 -19 -1 -8 3 -5 6 6 6 11 1
17 -2 13 -5z m-1952 -12 c-13 -11 -251 -95 -241 -85 12 12 209 91 231 92 11 1
15 -3 10 -7z m1752 2 c-3 -3 -12 -4 -19 -1 -8 3 -5 6 6 6 11 1 17 -2 13 -5z
m1658 -44 c-14 -27 -28 -50 -30 -50 -3 0 6 23 20 50 14 28 28 50 30 50 3 0 -6
-22 -20 -50z m-3294 23 c13 -15 12 -15 -6 -6 -11 6 -27 13 -35 16 -10 4 -8 6
6 6 12 1 28 -6 35 -16z m1584 7 c-3 -5 -11 -10 -16 -10 -6 0 -7 5 -4 10 3 6
11 10 16 10 6 0 7 -4 4 -10z m-1125 -9 c0 -5 -9 -11 -20 -14 -11 -3 -20 -1
-20 3 0 5 8 11 18 13 9 3 18 5 20 6 1 0 2 -3 2 -8z m1480 -7 c0 -2 -7 -4 -15
-4 -8 0 -15 4 -15 10 0 5 7 7 15 4 8 -4 15 -8 15 -10z m-405 -4 c-3 -5 -11
-10 -16 -10 -6 0 -7 5 -4 10 3 6 11 10 16 10 6 0 7 -4 4 -10z m172 -16 c-3 -3
-12 -4 -19 -1 -8 3 -5 6 6 6 11 1 17 -2 13 -5z m50 0 c-3 -3 -12 -4 -19 -1 -8
3 -5 6 6 6 11 1 17 -2 13 -5z m48 -4 c3 -5 1 -10 -4 -10 -6 0 -11 5 -11 10 0
6 2 10 4 10 3 0 8 -4 11 -10z m-1693 -9 c4 -1 8 -16 10 -33 2 -21 8 -32 16
-30 8 1 11 -2 7 -8 -11 -18 -29 -9 -67 34 l-37 42 32 -2 c18 -1 35 -2 39 -3z
m1548 5 c0 -2 -7 -6 -15 -10 -8 -3 -15 -1 -15 4 0 6 7 10 15 10 8 0 15 -2 15
-4z m-867 -54 c-16 -4 -33 14 -33 35 0 6 11 2 25 -10 19 -18 21 -23 8 -25z
m1067 38 c0 -5 -2 -10 -4 -10 -3 0 -8 5 -11 10 -3 6 -1 10 4 10 6 0 11 -4 11
-10z m170 0 c0 -5 -2 -10 -4 -10 -3 0 -8 5 -11 10 -3 6 -1 10 4 10 6 0 11 -4
11 -10z m-643 -6 c-3 -3 -12 -4 -19 -1 -8 3 -5 6 6 6 11 1 17 -2 13 -5z m-47
-8 c0 -2 -7 -6 -15 -10 -8 -3 -15 -1 -15 4 0 6 7 10 15 10 8 0 15 -2 15 -4z
m210 -6 c0 -5 -5 -10 -11 -10 -5 0 -7 5 -4 10 3 6 8 10 11 10 2 0 4 -4 4 -10z
m360 0 c0 -5 -7 -7 -15 -4 -8 4 -15 8 -15 10 0 2 7 4 15 4 8 0 15 -4 15 -10z
m165 0 c3 -5 2 -10 -4 -10 -5 0 -13 5 -16 10 -3 6 -2 10 4 10 5 0 13 -4 16
-10z m-1905 -4 c0 -3 -4 -8 -10 -11 -5 -3 -10 -1 -10 4 0 6 5 11 10 11 6 0 10
-2 10 -4z m40 -3 c0 -5 25 -26 55 -48 30 -22 54 -48 55 -58 0 -10 4 -16 9 -12
5 3 16 -2 24 -10 9 -8 20 -15 26 -15 6 0 15 -9 21 -20 6 -11 16 -20 24 -20 7
0 22 -10 34 -22 22 -24 25 -27 87 -72 146 -107 163 -125 185 -198 12 -39 20
-72 18 -74 -8 -7 -528 389 -576 439 l-27 28 24 44 c21 40 41 58 41 38z m1075
-3 c-3 -5 -10 -10 -16 -10 -5 0 -9 5 -9 10 0 6 7 10 16 10 8 0 12 -4 9 -10z
m-55 -10 c0 -5 -5 -10 -11 -10 -5 0 -7 5 -4 10 3 6 8 10 11 10 2 0 4 -4 4 -10z
m280 6 c0 -2 -7 -6 -15 -10 -8 -3 -15 -1 -15 4 0 6 7 10 15 10 8 0 15 -2 15
-4z m445 -6 c3 -6 -1 -7 -9 -4 -18 7 -21 14 -7 14 6 0 13 -4 16 -10z m170 0
c3 -5 2 -10 -4 -10 -5 0 -13 5 -16 10 -3 6 -2 10 4 10 5 0 13 -4 16 -10z m523
-12 c-3 -7 -18 -14 -34 -16 l-29 -3 25 15 c32 18 43 19 38 4z m-643 -8 c3 -5
2 -10 -4 -10 -5 0 -13 5 -16 10 -3 6 -2 10 4 10 5 0 13 -4 16 -10z m170 0 c3
-5 2 -10 -4 -10 -5 0 -13 5 -16 10 -3 6 -2 10 4 10 5 0 13 -4 16 -10z m-775
-4 c0 -3 -4 -8 -10 -11 -5 -3 -10 -1 -10 4 0 6 5 11 10 11 6 0 10 -2 10 -4z
m-323 -12 c-3 -3 -12 -4 -19 -1 -8 3 -5 6 6 6 11 1 17 -2 13 -5z m273 -4 c0
-5 -5 -10 -11 -10 -5 0 -7 5 -4 10 3 6 8 10 11 10 2 0 4 -4 4 -10z m710 -6 c0
-2 -7 -4 -15 -4 -8 0 -15 4 -15 10 0 5 7 7 15 4 8 -4 15 -8 15 -10z m167 10
c-3 -3 -12 -4 -19 -1 -8 3 -5 6 6 6 11 1 17 -2 13 -5z m-1200 -10 c-3 -3 -12
-4 -19 -1 -8 3 -5 6 6 6 11 1 17 -2 13 -5z m1250 0 c-3 -3 -12 -4 -19 -1 -8 3
-5 6 6 6 11 1 17 -2 13 -5z m-1300 -10 c-3 -3 -12 -4 -19 -1 -8 3 -5 6 6 6 11
1 17 -2 13 -5z m320 0 c-3 -3 -12 -4 -19 -1 -8 3 -5 6 6 6 11 1 17 -2 13 -5z
m798 -4 c3 -5 1 -10 -4 -10 -6 0 -11 5 -11 10 0 6 2 10 4 10 3 0 8 -4 11 -10z
m232 4 c-3 -3 -12 -4 -19 -1 -8 3 -5 6 6 6 11 1 17 -2 13 -5z m893 -14 c-6
-11 -13 -20 -16 -20 -2 0 0 9 6 20 6 11 13 20 16 20 2 0 0 -9 -6 -20z m580 2
c0 -13 -31 -28 -136 -65 -123 -44 -138 -47 -152 -33 -13 13 -13 16 -1 21 8 2
68 25 134 49 135 50 155 54 155 28z m-3208 -14 c-7 -7 -12 -8 -12 -2 0 14 12
26 19 19 2 -3 -1 -11 -7 -17z m278 12 c0 -5 -5 -10 -11 -10 -5 0 -7 5 -4 10 3
6 8 10 11 10 2 0 4 -4 4 -10z m57 4 c-3 -3 -12 -4 -19 -1 -8 3 -5 6 6 6 11 1
17 -2 13 -5z m1450 0 c-3 -3 -12 -4 -19 -1 -8 3 -5 6 6 6 11 1 17 -2 13 -5z
m-2382 -18 c-16 -8 -55 -40 -85 -71 -52 -54 -52 -56 -13 -25 42 33 68 36 43 5
-9 -11 -11 -33 -7 -75 6 -50 4 -61 -11 -69 -9 -6 -12 -11 -5 -11 6 0 14 4 18
9 3 6 17 4 33 -5 15 -7 43 -14 62 -13 27 0 30 2 15 8 -16 7 -14 9 13 14 22 4
39 17 52 39 24 39 25 63 5 103 l-15 30 20 -24 c24 -28 27 -88 5 -117 -17 -22
-19 -34 -5 -34 5 0 17 14 26 32 16 30 15 69 -2 112 -7 19 -5 18 27 -3 21 -14
10 0 -30 38 -91 86 -67 76 37 -17 48 -43 207 -182 353 -309 l266 -232 5 -51
c5 -48 40 -106 58 -95 10 6 70 -17 70 -27 0 -4 5 -8 11 -8 6 0 26 -12 46 -27
l35 -27 -24 -18 c-12 -9 -27 -18 -31 -18 -12 0 -239 124 -307 168 -30 19 -85
56 -122 81 -93 63 -128 80 -166 81 -61 0 -107 -69 -113 -170 -6 -100 56 -200
168 -274 85 -57 293 -176 308 -176 6 -1 -53 -23 -130 -51 -186 -65 -175 -62
-175 -47 0 8 -18 22 -40 32 -22 10 -40 22 -40 27 0 5 -11 9 -25 9 -14 0 -25 5
-25 10 0 6 -7 10 -15 10 -8 0 -15 6 -15 13 0 22 12 28 28 15 11 -10 13 -8 10
12 -2 19 -9 25 -28 25 -19 0 -24 -5 -22 -19 5 -25 -20 -16 -33 12 -7 15 -19
22 -37 22 -16 0 -28 5 -28 10 0 6 5 10 12 10 30 0 -13 17 -49 19 -7 1 -13 8
-13 17 0 11 -6 15 -19 11 -15 -4 -21 2 -26 23 -5 25 -47 57 -67 52 -5 -1 -8 3
-8 9 0 6 -9 8 -20 4 -20 -6 -50 14 -50 34 0 6 -11 11 -25 11 -14 0 -25 5 -25
10 0 8 21 13 46 9 4 0 11 5 15 13 8 11 11 11 18 -1 12 -18 62 -6 55 13 -5 14
45 33 74 27 6 -1 12 2 12 8 0 11 56 26 84 22 10 -1 15 2 12 7 -3 6 -1 12 6 14
18 6 -1 28 -24 28 -11 0 -77 -19 -146 -42 -86 -28 -126 -47 -129 -58 -4 -15
-9 -16 -34 -7 -16 6 -29 15 -29 20 0 4 -4 5 -10 2 -5 -3 -10 1 -10 9 0 8 -9
18 -20 21 -11 3 -20 11 -20 16 0 5 -11 7 -25 3 -19 -5 -25 -2 -25 10 0 9 -4
16 -10 16 -5 0 -10 7 -10 15 0 9 -11 20 -25 25 -14 5 -25 14 -25 19 0 10 -31
23 -60 26 -22 2 -60 28 -60 42 0 6 -14 14 -30 18 -23 5 -30 12 -28 25 2 11 -1
19 -5 19 -4 0 -15 7 -24 16 -19 19 -30 6 240 280 103 105 194 200 202 212 19
27 104 83 124 83 9 -1 3 -7 -14 -14z m1200 4 c-3 -5 -10 -10 -16 -10 -5 0 -9
5 -9 10 0 6 7 10 16 10 8 0 12 -4 9 -10z m955 0 c0 -5 -2 -10 -4 -10 -3 0 -8
5 -11 10 -3 6 -1 10 4 10 6 0 11 -4 11 -10z m280 0 c0 -5 -7 -7 -15 -4 -8 4
-15 8 -15 10 0 2 7 4 15 4 8 0 15 -4 15 -10z m-1285 -10 c-3 -5 -10 -10 -16
-10 -5 0 -9 5 -9 10 0 6 7 10 16 10 8 0 12 -4 9 -10z m1335 0 c0 -5 -4 -10
-10 -10 -5 0 -10 5 -10 10 0 6 5 10 10 10 6 0 10 -4 10 -10z m-1385 -10 c-3
-5 -10 -10 -16 -10 -5 0 -9 5 -9 10 0 6 7 10 16 10 8 0 12 -4 9 -10z m1430 0
c3 -5 1 -10 -4 -10 -6 0 -11 5 -11 10 0 6 2 10 4 10 3 0 8 -4 11 -10z m-1485
-10 c0 -5 -4 -10 -10 -10 -5 0 -10 5 -10 10 0 6 5 10 10 10 6 0 10 -4 10 -10z
m1217 4 c-3 -3 -12 -4 -19 -1 -8 3 -5 6 6 6 11 1 17 -2 13 -5z m53 -10 c0 -2
-7 -4 -15 -4 -8 0 -15 4 -15 10 0 5 7 7 15 4 8 -4 15 -8 15 -10z m1020 6 c0
-11 -46 -34 -67 -33 -35 1 -36 5 -8 23 32 21 75 27 75 10z m-2340 -4 c0 -3 -4
-8 -10 -11 -5 -3 -10 -1 -10 4 0 6 5 11 10 11 6 0 10 -2 10 -4z m-55 -16 c-3
-5 -10 -10 -16 -10 -5 0 -9 5 -9 10 0 6 7 10 16 10 8 0 12 -4 9 -10z m-148
-22 c-3 -8 -6 -5 -6 6 -1 11 2 17 5 13 3 -3 4 -12 1 -19z m98 -33 c11 -4 31
-9 44 -11 13 -2 31 -6 40 -10 9 -4 26 -6 39 -5 12 1 22 -1 22 -6 0 -5 17 -9
38 -10 20 -1 51 -4 67 -8 17 -3 50 -7 75 -9 159 -11 242 -16 288 -17 53 -3 59
-13 12 -22 -16 -3 -9 -5 20 -7 l45 -2 -40 -9 c-22 -4 -111 -8 -197 -8 -157 -1
-158 -1 -158 22 -1 21 -1 21 -15 3 -13 -17 -24 -18 -117 -13 l-103 6 55 -26
c30 -15 111 -47 180 -70 69 -24 107 -41 85 -38 -75 11 -202 56 -305 109 -99
50 -103 53 -121 100 -20 54 -16 75 9 53 10 -8 26 -17 37 -22z m1732 13 c-3 -8
-6 -5 -6 6 -1 11 2 17 5 13 3 -3 4 -12 1 -19z m577 -39 c-15 -16 -34 -29 -41
-29 -8 0 -11 -5 -7 -12 4 -7 3 -8 -4 -4 -6 4 -18 -1 -26 -11 -36 -42 -82 -83
-226 -203 -105 -87 -165 -145 -164 -157 2 -13 -91 -103 -106 -103 -5 0 -11 9
-15 20 -5 14 3 28 31 52 393 348 579 505 582 491 2 -8 -9 -28 -24 -44z m131
25 c-20 -16 -26 -27 -18 -30 8 -4 2 -15 -18 -31 -23 -20 -27 -28 -17 -34 8 -5
17 -4 23 4 6 6 19 17 30 23 16 9 22 8 32 -5 10 -14 13 -14 30 2 44 39 59 7 18
-37 -13 -14 -24 -29 -24 -32 2 -10 -24 -64 -30 -64 -9 0 -163 88 -175 100 -7
7 -4 16 7 28 14 13 19 14 26 4 10 -16 44 -4 37 13 -4 11 26 45 40 45 2 0 17
11 31 25 15 13 29 22 32 19 3 -3 -8 -16 -24 -30z m-2528 -16 c-3 -8 -6 -5 -6
6 -1 11 2 17 5 13 3 -3 4 -12 1 -19z m1783 2 c0 -5 -5 -10 -11 -10 -5 0 -7 5
-4 10 3 6 8 10 11 10 2 0 4 -4 4 -10z m27 -22 c-3 -8 -6 -5 -6 6 -1 11 2 17 5
13 3 -3 4 -12 1 -19z m-1797 -24 c0 -8 -5 -12 -10 -9 -6 4 -8 11 -5 16 9 14
15 11 15 -7z m2809 -101 c269 -268 391 -401 391 -424 0 -22 -5 -19 -48 26 -26
28 -57 61 -67 75 -22 27 -176 168 -265 241 -62 52 -86 63 -93 45 -8 -20 -101
-83 -116 -78 -10 3 -11 6 -1 12 10 6 8 11 -7 21 l-20 12 19 46 c30 68 71 131
86 131 7 0 62 -48 121 -107z m-1019 77 c0 -5 -5 -10 -11 -10 -5 0 -7 5 -4 10
3 6 8 10 11 10 2 0 4 -4 4 -10z m-275 -33 c55 -1 128 2 163 6 56 7 62 6 62
-10 0 -14 -2 -15 -9 -4 -8 12 -18 12 -74 -2 -97 -24 -504 -32 -572 -12 l-50
15 45 -7 c50 -9 218 -6 233 4 5 3 3 9 -4 15 -9 5 9 6 46 3 33 -3 105 -7 160
-8z m-488 -3 c-3 -3 -12 -4 -19 -1 -8 3 -5 6 6 6 11 1 17 -2 13 -5z m-1094
-11 c10 -19 18 -88 9 -78 -14 14 -32 85 -22 85 5 0 11 -3 13 -7z m1847 -3 c0
-5 -5 -10 -11 -10 -5 0 -7 5 -4 10 3 6 8 10 11 10 2 0 4 -4 4 -10z m604 -11
c20 -12 36 -23 36 -25 0 -5 -44 18 -70 35 -27 19 -2 11 34 -10z m-541 -9 c-3
-11 -7 -20 -9 -20 -2 0 -4 9 -4 20 0 11 4 20 9 20 5 0 7 -9 4 -20z m527 -9
c14 -9 28 -19 31 -24 3 -5 9 -8 13 -8 3 1 29 -10 56 -24 51 -26 63 -48 38 -73
-7 -7 -15 -33 -18 -59 l-5 -48 -275 -222 c-151 -122 -279 -226 -285 -231 -157
-131 -215 -173 -232 -163 -17 9 -17 10 1 17 11 4 27 15 37 23 44 41 173 147
208 171 12 8 48 39 79 67 31 29 60 53 64 53 20 0 234 206 269 259 38 56 45 95
25 143 -17 39 -59 78 -85 78 -14 1 -13 3 3 15 10 8 16 21 13 29 -11 29 12 28
63 -3z m-2363 -13 c-3 -8 -6 -5 -6 6 -1 11 2 17 5 13 3 -3 4 -12 1 -19z m298
-76 c58 -20 145 -44 155 -44 3 0 14 -7 24 -16 11 -9 16 -11 12 -4 -4 7 -2 12
7 12 20 0 29 -27 17 -50 -15 -28 -12 -40 10 -40 23 0 39 -45 47 -138 7 -75
-10 -102 -64 -102 -53 0 -144 47 -157 82 -6 16 -16 26 -23 24 -8 -3 -13 3 -13
15 0 15 -5 19 -19 14 -13 -4 -23 2 -34 18 -9 13 -22 31 -30 39 -35 35 -133
207 -151 265 -7 21 -2 20 76 -16 46 -21 110 -48 143 -59z m1417 76 c-7 -7 -12
-8 -12 -2 0 6 3 14 7 17 3 4 9 5 12 2 2 -3 -1 -11 -7 -17z m48 -7 c0 -6 -4
-13 -10 -16 -5 -3 -10 1 -10 9 0 9 5 16 10 16 6 0 10 -4 10 -9z m52 -33 c-8
-8 -9 -4 -5 13 4 13 8 18 11 10 2 -7 -1 -18 -6 -23z m691 6 c9 -4 17 -10 17
-16 0 -9 -20 0 -50 22 -13 10 -13 11 0 6 8 -3 23 -9 33 -12z m-2493 -15 c0 -5
-4 -9 -10 -9 -5 0 -10 7 -10 16 0 8 5 12 10 9 6 -3 10 -10 10 -16z m1692 -1
c-7 -7 -12 -8 -12 -2 0 6 3 14 7 17 3 4 9 5 12 2 2 -3 -1 -11 -7 -17z m-1548
-193 c22 -38 23 -44 7 -25 -12 14 -33 44 -47 68 -27 44 -38 54 -27 25 6 -18
82 -155 112 -203 l15 -25 -29 25 c-16 14 -23 17 -16 7 8 -9 11 -20 8 -23 -29
-29 -123 180 -133 296 l-6 65 44 -80 c25 -44 57 -103 72 -130z m1588 173 c-7
-7 -12 -8 -12 -2 0 6 3 14 7 17 3 4 9 5 12 2 2 -3 -1 -11 -7 -17z m1236 -203
c123 -121 152 -155 152 -177 0 -19 -4 -26 -13 -22 -8 3 -13 14 -13 26 1 11 -5
23 -11 25 -8 3 -13 -4 -13 -16 0 -12 -4 -21 -9 -21 -6 0 -7 -15 -4 -34 5 -32
4 -34 -16 -29 -14 4 -20 11 -17 22 3 9 10 39 16 66 l12 50 -143 138 c-78 76
-150 142 -159 147 -14 7 -113 -68 -506 -385 -269 -217 -492 -395 -496 -395 -5
0 -8 4 -8 8 0 8 21 25 634 521 l358 291 41 -33 c23 -17 110 -99 195 -182z
m-1051 199 c-3 -3 -12 -4 -19 -1 -8 3 -5 6 6 6 11 1 17 -2 13 -5z m-1920 -26
c-3 -8 -6 -5 -6 6 -1 11 2 17 5 13 3 -3 4 -12 1 -19z m1689 -5 c-10 -10 -19 5
-10 18 6 11 8 11 12 0 2 -7 1 -15 -2 -18z m587 -5 c69 -70 7 -159 -278 -394
-65 -55 -133 -110 -151 -124 -17 -14 -75 -60 -129 -104 l-97 -78 -26 19 c-14
11 -27 23 -29 29 -4 13 60 54 86 54 23 0 77 39 161 116 25 22 78 62 117 88 79
52 154 127 134 134 -7 2 -29 -11 -49 -30 -43 -40 -130 -111 -152 -123 -8 -5
58 65 147 156 90 90 170 173 178 184 8 11 15 15 15 9 0 -6 -7 -17 -16 -24 -8
-8 -20 -22 -26 -33 -12 -23 1 -17 42 17 l25 21 -19 -22 c-11 -13 -15 -23 -9
-23 15 0 52 47 59 75 8 34 -11 55 -51 55 -35 0 -79 -30 -125 -85 -40 -47 -327
-325 -337 -325 -4 0 -99 -72 -125 -94 -9 -8 -19 -12 -22 -8 -3 3 -6 1 -6 -5 0
-6 -16 -23 -35 -37 l-35 -27 0 23 c1 16 21 39 72 78 127 98 321 262 413 351
105 100 189 161 219 157 12 -2 33 -15 49 -30z m-543 -3 c0 -8 -4 -15 -10 -15
-5 0 -7 7 -4 15 4 8 8 15 10 15 2 0 4 -7 4 -15z m125 5 c-3 -5 -13 -10 -21
-10 -8 0 -14 5 -14 10 0 6 9 10 21 10 11 0 17 -4 14 -10z m727 -21 c-4 -3 -29
-23 -56 -45 -48 -37 -49 -38 -29 -9 11 17 28 42 37 57 14 24 19 26 36 16 11
-7 16 -15 12 -19z m-902 -19 c0 -5 -5 -10 -11 -10 -5 0 -7 5 -4 10 3 6 8 10
11 10 2 0 4 -4 4 -10z m-103 -97 c-46 -43 -107 -91 -137 -106 -30 -15 -44 -20
-30 -11 14 10 52 44 84 77 54 54 139 117 158 117 4 0 -30 -35 -75 -77z m-1567
41 c0 -8 -4 -12 -10 -9 -5 3 -10 10 -10 16 0 5 5 9 10 9 6 0 10 -7 10 -16z
m1657 -6 c-3 -8 -6 -5 -6 6 -1 11 2 17 5 13 3 -3 4 -12 1 -19z m-172 -40 c-10
-37 -21 -48 -78 -83 -37 -22 -87 -60 -112 -85 -25 -24 -45 -41 -45 -38 0 10
80 100 81 91 0 -4 3 0 7 9 5 12 148 146 158 148 1 0 -4 -19 -11 -42z m212 20
c-3 -8 -6 -5 -6 6 -1 11 2 17 5 13 3 -3 4 -12 1 -19z m-1700 -30 c-3 -8 -6 -5
-6 6 -1 11 2 17 5 13 3 -3 4 -12 1 -19z m1663 13 c0 -6 -4 -13 -10 -16 -5 -3
-10 1 -10 9 0 9 5 16 10 16 6 0 10 -4 10 -9z m37 -33 c-3 -8 -6 -5 -6 6 -1 11
2 17 5 13 3 -3 4 -12 1 -19z m-3107 -28 c-7 -13 -7 -20 0 -20 5 0 29 -19 52
-43 24 -24 51 -47 61 -50 24 -9 17 -30 -12 -37 -20 -4 -13 -13 61 -81 171
-157 472 -409 489 -409 5 0 9 5 9 11 0 24 -23 50 -65 75 -25 14 -45 33 -45 41
0 8 6 13 13 10 7 -3 19 3 25 13 9 14 8 21 -5 31 -13 11 -17 10 -28 -4 -11 -15
-13 -16 -19 -2 -3 8 -16 15 -29 15 -17 0 -23 6 -25 27 -1 14 -9 35 -19 45 -9
10 -11 18 -5 18 6 0 17 -8 24 -18 17 -23 48 -36 48 -19 0 9 3 8 9 -1 4 -8 14
-13 22 -12 27 4 40 0 34 -10 -3 -5 0 -10 8 -10 8 0 17 -13 21 -30 4 -24 12
-32 37 -37 19 -3 35 -15 41 -29 6 -13 15 -21 19 -18 5 3 9 0 9 -6 0 -7 8 -9
20 -5 15 5 21 0 26 -20 4 -16 12 -24 19 -21 7 2 15 -4 18 -16 3 -11 10 -17 15
-14 5 3 22 -6 38 -19 32 -27 30 -27 61 -30 66 -7 68 -26 6 -50 -27 -10 -63
-27 -81 -37 -18 -10 -38 -18 -44 -18 -6 0 -45 23 -87 51 -126 86 -256 194
-758 629 -19 16 -33 38 -33 51 0 28 37 69 62 69 16 0 17 -3 8 -20z m1407 -2
c-3 -8 -6 -5 -6 6 -1 11 2 17 5 13 3 -3 4 -12 1 -19z m1663 1 c0 -5 -4 -9 -10
-9 -5 0 -10 7 -10 16 0 8 5 12 10 9 6 -3 10 -10 10 -16z m37 -21 c-3 -8 -6 -5
-6 6 -1 11 2 17 5 13 3 -3 4 -12 1 -19z m-2157 -18 l-35 -5 -7 -68 c-7 -61 -6
-73 18 -120 15 -29 36 -65 47 -82 l21 -30 -24 20 c-12 11 -36 40 -52 64 -24
39 -28 55 -28 117 0 88 22 125 67 116 28 -6 28 -6 -7 -12z m2051 -18 c-47 -92
-137 -190 -223 -245 -46 -29 -42 -19 9 22 26 21 62 53 78 71 l30 33 -32 -21
c-50 -35 -52 -25 -3 19 25 22 38 37 30 33 -8 -4 17 23 55 59 39 36 71 66 73
67 1 0 -6 -17 -17 -38z m-1945 -23 c3 -6 -5 -3 -20 6 -14 10 -26 19 -26 22 0
7 39 -17 46 -28z m3299 -21 c-4 -18 -15 -68 -26 -112 -10 -43 -19 -81 -19 -84
0 -2 -9 -2 -20 1 -19 5 -20 2 -14 -30 7 -38 4 -40 -49 -18 -17 7 -18 4 -11
-30 7 -40 6 -40 -54 -17 -10 4 -12 -4 -6 -33 5 -31 4 -37 -7 -33 -46 17 -59
19 -59 6 0 -14 -44 -38 -69 -38 -8 0 -151 -36 -319 -81 l-304 -80 -56 19 -56
18 384 197 c212 108 450 230 530 271 80 42 149 76 153 76 5 0 6 -15 2 -32z
m-3135 -102 c-4 -4 -37 15 -72 44 -92 76 -92 78 -1 19 45 -30 78 -58 73 -63z
m401 67 c-9 11 -10 17 -2 17 10 0 15 -14 12 -33 -1 -5 31 -41 71 -80 40 -38
58 -60 40 -47 -56 38 -152 131 -152 148 0 13 4 12 22 -4 19 -15 20 -16 9 -1z
m-623 -41 c20 -30 11 -28 -19 4 -13 15 -18 25 -10 22 8 -2 21 -14 29 -26z
m-12 -62 c4 0 0 8 -8 18 -30 34 -31 46 -4 24 16 -12 34 -22 40 -22 16 0 48
-39 41 -50 -3 -5 -3 -21 1 -35 4 -18 13 -25 29 -25 14 0 35 -14 54 -35 17 -19
37 -35 45 -35 8 0 18 -4 21 -10 3 -5 15 -10 26 -10 10 0 19 -4 19 -10 0 -5 6
-7 13 -5 6 3 18 1 26 -4 10 -7 11 -13 2 -30 l-12 -21 -47 27 c-26 15 -55 36
-65 46 -10 10 -41 29 -67 41 -58 27 -82 45 -74 57 10 16 -28 60 -47 54 -18 -6
-29 7 -50 62 l-10 28 30 -32 c16 -18 33 -33 37 -33z m139 -10 c3 -5 -3 -10
-14 -10 -12 0 -21 5 -21 10 0 6 6 10 14 10 8 0 18 -4 21 -10z m225 -16 c0 -2
-9 0 -20 6 -11 6 -20 13 -20 16 0 2 9 0 20 -6 11 -6 20 -13 20 -16z m-200 -9
c0 -17 -43 -30 -62 -19 -8 5 -3 12 17 20 39 17 45 17 45 -1z m483 -142 c-6 -2
-45 9 -85 25 -150 61 -164 69 -164 90 0 18 15 13 131 -46 71 -36 125 -67 118
-69z m-10 102 c-6 -16 -43 -21 -43 -5 0 11 32 30 42 24 4 -3 5 -11 1 -19z
m-1442 -57 c14 -54 91 -242 128 -317 18 -34 31 -64 29 -66 -23 -23 -139 215
-191 392 -15 51 -15 52 4 40 11 -7 24 -29 30 -49z m4234 52 c12 -19 -68 -237
-132 -364 -24 -47 -48 -75 -65 -76 -4 0 17 51 47 113 29 61 65 147 80 190 15
43 32 80 36 83 5 3 9 18 9 35 0 29 13 39 25 19z m-2714 -68 l1 -47 13 40 13
40 1 -37 c1 -44 18 -51 24 -10 l4 27 2 -30 c1 -16 6 -37 11 -45 7 -11 10 -5
11 25 l1 40 13 -50 13 -50 1 38 c1 36 13 48 26 26 15 -23 226 -106 295 -115
99 -14 192 -19 203 -12 6 4 26 8 42 8 69 1 321 85 346 116 12 14 15 12 25 -17
l12 -34 1 40 c1 30 4 36 11 25 5 -8 10 -26 11 -40 1 -16 5 -7 14 25 l13 50 2
-40 2 -40 13 50 13 50 2 -45 c1 -35 3 -40 10 -25 5 11 9 34 9 51 1 28 25 64
36 53 2 -3 0 -36 -5 -75 -5 -38 -14 -168 -19 -288 -6 -121 -13 -222 -17 -225
-7 -7 -1035 -7 -1109 0 l-50 5 -7 179 c-4 99 -12 224 -17 278 -15 133 -15 130
9 117 15 -8 20 -22 21 -58z m-181 -18 c0 -2 -9 0 -20 6 -11 6 -20 13 -20 16 0
2 9 0 20 -6 11 -6 20 -13 20 -16z m-176 -60 c9 -8 42 -28 73 -44 57 -29 57
-29 30 -39 -15 -6 -39 -16 -53 -21 -23 -9 -25 -9 -15 4 10 12 5 19 -28 38 -32
18 -41 29 -41 51 0 31 11 34 34 11z m320 -411 c7 -19 5 -23 -13 -23 -15 0 -28
14 -45 48 -35 70 -76 207 -76 257 0 41 3 46 43 74 24 16 50 37 58 47 12 15 15
-7 20 -182 3 -109 9 -209 13 -221z m1346 341 c30 -18 31 -21 24 -69 -9 -66
-37 -156 -74 -238 -26 -58 -34 -67 -56 -67 -21 0 -25 3 -19 18 12 29 24 171
24 306 l1 128 34 -30 c19 -16 48 -38 66 -48z m-1580 56 c8 -5 11 -10 5 -10 -5
0 -17 5 -25 10 -8 5 -10 10 -5 10 6 0 17 -5 25 -10z m2667 -22 c-3 -8 -6 -5
-6 6 -1 11 2 17 5 13 3 -3 4 -12 1 -19z m-4221 -2 c27 -8 105 -25 174 -37 69
-12 130 -26 135 -32 7 -6 2 -8 -15 -4 -14 3 -56 8 -95 11 -61 5 -65 4 -30 -5
22 -6 67 -14 100 -19 53 -8 49 -9 -40 -6 l-100 4 105 -20 c90 -18 101 -22 80
-31 -14 -5 -38 -11 -55 -12 -16 -1 -52 -3 -80 -4 l-50 -3 38 -10 c37 -10 37
-11 21 -29 -9 -11 -29 -19 -42 -19 -24 0 -25 -1 -7 -14 11 -8 16 -19 12 -30
-4 -9 -13 -58 -22 -109 -25 -150 -35 -187 -52 -187 -12 0 -13 -3 -4 -14 19
-22 2 -46 -33 -47 l-31 -1 33 -14 c17 -8 32 -21 32 -30 0 -13 -6 -15 -32 -10
-18 4 -64 9 -103 12 -38 2 -82 7 -97 11 l-28 8 76 105 c42 58 95 133 120 166
24 34 44 69 44 78 0 25 -28 88 -86 193 -30 54 -54 101 -54 105 0 12 31 9 86
-6z m4834 -57 c-5 -19 -26 -62 -47 -94 -91 -148 -103 -184 -83 -255 12 -42 33
-65 125 -145 82 -71 135 -126 135 -141 0 -6 -51 -16 -122 -23 -68 -7 -134 -15
-148 -17 -22 -4 -22 -3 4 9 29 13 29 13 -24 13 -44 -1 -55 2 -58 16 -2 12 5
20 25 24 l28 8 -32 8 c-23 6 -33 14 -33 28 0 11 6 20 13 20 8 1 7 5 -4 13 -11
9 -18 49 -28 160 l-13 147 24 20 23 19 -22 1 c-16 0 -21 6 -20 23 0 12 6 25
12 29 6 5 3 8 -7 8 -9 0 -34 10 -54 22 l-38 22 50 12 c48 11 48 11 -25 6 -70
-5 -73 -4 -63 14 7 13 38 26 104 41 l93 23 -65 -4 c-49 -3 -59 -2 -39 5 33 12
282 37 291 29 4 -3 3 -21 -2 -41z m-673 9 c-3 -7 -5 -2 -5 12 0 14 2 19 5 13
2 -7 2 -19 0 -25z m-2547 -84 c14 -68 40 -144 69 -204 11 -24 21 -46 21 -48 0
-6 -228 9 -275 18 -22 4 -30 8 -18 9 12 1 25 6 28 11 4 6 -30 10 -95 10 -98 0
-206 17 -283 44 l-39 13 39 15 c21 9 112 41 203 72 91 30 199 69 240 85 41 16
80 29 87 30 6 1 17 -24 23 -55z m1752 2 c80 -30 196 -70 259 -90 63 -20 124
-42 137 -49 22 -13 21 -14 -30 -30 -80 -24 -172 -37 -277 -37 -104 0 -114 -14
-21 -28 48 -7 31 -9 -134 -21 -103 -7 -190 -11 -192 -9 -2 3 12 40 31 84 19
43 42 114 52 157 9 42 19 77 23 77 4 0 72 -24 152 -54z m615 -58 c-3 -8 -6 -5
-6 6 -1 11 2 17 5 13 3 -3 4 -12 1 -19z m-3210 -40 l56 -43 -39 -16 c-34 -14
-50 -15 -117 -5 -68 9 -81 14 -92 36 -13 24 -12 25 43 46 32 12 65 22 75 23
10 0 43 -18 74 -41z m3153 -8 c0 -5 -5 -10 -11 -10 -5 0 -7 5 -4 10 3 6 8 10
11 10 2 0 4 -4 4 -10z m-3641 -72 c10 -13 31 -36 46 -53 l27 -30 -26 48 c-27
48 -25 53 21 41 12 -3 54 -48 94 -100 39 -52 73 -94 76 -94 3 0 -52 87 -98
152 -25 36 -24 38 14 32 19 -4 45 -20 65 -43 26 -28 30 -30 16 -8 -9 15 -14
30 -11 34 4 3 91 -4 194 -16 347 -40 608 -63 1043 -93 251 -18 1287 -18 1510
0 242 19 545 49 710 71 90 12 147 16 151 10 3 -6 11 -3 19 6 12 14 70 22 70 9
0 -3 -14 -25 -32 -48 -30 -39 -29 -39 23 11 33 32 67 55 87 59 17 4 32 4 32 0
0 -3 -32 -48 -71 -99 l-71 -92 57 59 c31 33 72 78 91 102 19 23 46 44 59 47
14 2 25 2 25 0 0 -2 -19 -29 -42 -59 -28 -38 -46 -53 -57 -49 -9 3 -1 -7 17
-22 37 -32 39 -39 16 -64 -13 -15 -21 -16 -38 -7 -28 14 -11 -3 41 -39 40 -29
41 -31 26 -52 -10 -15 -22 -21 -34 -18 -32 9 -15 -6 115 -97 87 -62 126 -95
131 -113 3 -14 4 -27 1 -30 -2 -2 -42 17 -88 43 -127 71 -127 71 10 -34 73
-56 101 -92 72 -92 -5 0 -93 49 -195 109 -102 60 -185 108 -185 106 0 -3 73
-55 161 -116 142 -99 159 -113 140 -121 -23 -8 -62 8 -141 57 -71 43 -130 76
-130 71 0 -3 40 -33 88 -68 48 -35 89 -67 91 -73 1 -5 -12 -13 -30 -16 -24 -6
-42 -1 -81 22 -63 37 -66 36 -21 -5 l37 -34 -31 -6 c-21 -5 -42 -2 -65 10 -33
17 -33 17 -15 -3 17 -20 16 -20 -90 -42 -145 -28 -146 -28 -162 16 -13 35 -14
36 -28 17 -8 -10 -12 -30 -9 -45 l5 -25 -172 -27 c-224 -35 -474 -66 -562 -69
-70 -3 -70 -3 -73 25 -2 15 -9 27 -18 27 -8 0 -14 5 -14 10 0 6 -4 10 -10 10
-5 0 -10 -7 -10 -15 0 -8 7 -15 15 -15 12 0 14 -7 9 -27 -4 -16 -7 -29 -8 -29
-2 -3 -324 -24 -366 -24 l-46 0 -13 48 c-12 45 -13 46 -23 22 -5 -14 -7 -35
-5 -47 4 -20 -1 -23 -52 -29 -71 -9 -656 2 -821 16 -145 12 -357 35 -464 51
l-74 11 -7 42 -8 41 -15 -37 c-16 -42 -21 -43 -103 -29 -217 38 -465 84 -468
87 -2 2 4 13 14 24 23 25 15 25 -31 1 -57 -31 -70 -17 -31 32 17 23 25 37 17
32 -8 -5 -35 -22 -59 -37 -44 -28 -81 -36 -81 -19 0 5 21 26 48 47 74 59 72
60 -20 11 -125 -68 -161 -63 -62 8 90 65 84 70 -19 15 -146 -78 -161 -63 -32
35 58 44 105 81 105 83 0 2 -3 1 -7 -1 -5 -3 -50 -30 -101 -61 -128 -77 -171
-98 -189 -91 -11 4 20 32 101 91 64 47 116 88 116 91 0 3 -12 -2 -26 -12 -14
-9 -77 -48 -140 -86 -150 -90 -150 -66 -1 44 106 80 113 83 131 68 13 -11 10
-2 -9 27 -27 42 -28 43 -9 64 19 21 19 21 -5 8 -21 -11 -26 -10 -42 11 -18 23
-17 25 2 44 l21 20 40 -45 c40 -43 38 -36 -9 37 -13 19 -12 23 8 37 21 14 25
14 43 -2 10 -9 2 10 -19 43 -105 165 -135 216 -135 225 0 19 40 10 59 -12z
m4172 -35 c-23 -32 -51 -70 -63 -85 -22 -27 -24 -27 -45 -10 l-22 17 65 68
c38 40 73 67 85 67 18 0 16 -6 -20 -57z m34 -92 l-45 -60 -30 17 -29 17 27 30
c15 16 47 52 72 78 l45 48 3 -35 c3 -30 -5 -46 -43 -95z m-4186 -34 c51 -65
53 -69 35 -82 -11 -8 -22 -15 -26 -15 -7 0 -82 111 -107 159 -7 12 -9 31 -6
41 7 23 1 28 104 -103z m4245 -25 l6 -63 -40 22 c-22 13 -40 27 -40 33 0 9 62
78 65 73 1 -1 5 -30 9 -65z m-4310 -19 c25 -32 46 -61 46 -65 0 -4 -9 -12 -20
-18 -17 -9 -24 -4 -55 42 -33 50 -46 98 -26 98 5 0 30 -26 55 -57z m4164 21
c26 -18 27 -24 9 -48 -13 -17 -15 -17 -45 -2 -37 19 -38 23 -15 48 20 22 23
22 51 2z m158 -131 c4 -13 5 -26 3 -28 -3 -2 -132 68 -148 81 -2 2 4 13 13 23
18 20 19 19 72 -16 32 -21 57 -46 60 -60z m-4365 36 l22 -32 -24 -18 c-33 -25
-39 -24 -39 9 0 27 10 72 15 72 2 0 14 -14 26 -31z m4286 -56 c75 -51 105 -85
89 -100 -4 -4 -194 96 -215 113 -5 4 29 44 38 44 3 0 43 -26 88 -57z m-4222
-23 c10 -11 16 -22 14 -24 -9 -8 -140 -86 -144 -86 -15 0 -2 53 18 69 81 70
85 71 112 41z m43 -52 c7 -7 12 -15 12 -20 0 -4 -46 -35 -102 -68 -82 -48
-104 -57 -106 -45 -2 9 -2 18 0 19 1 1 41 30 87 64 46 34 87 62 91 62 3 0 11
-5 18 -12z m1285 -525 c291 -114 561 -160 886 -150 269 8 477 49 707 138 60
23 127 44 149 46 36 3 33 1 -40 -33 -445 -203 -1012 -238 -1510 -94 -109 31
-322 113 -340 131 -17 17 56 -2 148 -38z m829 -16 c224 -1 401 -5 395 -9 -7
-4 -78 -14 -158 -24 -225 -26 -540 -10 -699 36 -33 9 -33 9 10 4 25 -3 228 -6
452 -7z"/>
<path d="M2667 5347 c-3 -9 -2 -30 3 -48 9 -31 9 -31 -10 -14 -11 10 -20 24
-20 32 0 7 -5 13 -11 13 -18 0 -4 -66 20 -97 12 -14 21 -23 21 -19 0 4 12 0
28 -7 15 -7 34 -12 44 -10 9 2 23 -6 32 -18 8 -12 28 -24 43 -25 28 -3 28 -2
25 39 -5 49 -17 67 -45 67 -19 0 -19 1 -4 18 10 10 17 26 17 35 0 26 -36 21
-58 -8 -11 -14 -24 -25 -29 -25 -5 0 -18 19 -29 42 -15 31 -22 37 -27 25z"/>
<path d="M3336 5269 c-37 -29 -32 -43 7 -19 44 27 63 25 98 -9 19 -19 29 -24
29 -15 0 8 -11 26 -25 39 -30 31 -73 32 -109 4z"/>
<path d="M3320 5200 c-50 -50 6 -155 71 -135 18 6 18 8 -3 36 -19 26 -21 34
-11 60 11 29 10 31 -7 26 -23 -6 -26 3 -8 21 9 9 8 12 -5 12 -9 0 -26 -9 -37
-20z"/>
<path d="M3270 5076 c-14 -38 -10 -66 12 -80 33 -20 199 36 176 60 -4 3 -15 1
-26 -5 -43 -23 -119 -3 -141 36 -8 16 -11 14 -21 -11z"/>
<path d="M3039 4663 c-13 -16 -12 -17 4 -4 16 13 21 21 13 21 -2 0 -10 -8 -17
-17z"/>
<path d="M2788 4563 c7 -3 16 -2 19 1 4 3 -2 6 -13 5 -11 0 -14 -3 -6 -6z"/>
<path d="M3420 4630 c8 -5 20 -10 25 -10 6 0 3 5 -5 10 -8 5 -19 10 -25 10 -5
0 -3 -5 5 -10z"/>
<path d="M4805 4100 c-3 -6 1 -7 9 -4 18 7 21 14 7 14 -6 0 -13 -4 -16 -10z"/>
<path d="M4683 3953 c9 -2 23 -2 30 0 6 3 -1 5 -18 5 -16 0 -22 -2 -12 -5z"/>
<path d="M4653 3883 c9 -2 23 -2 30 0 6 3 -1 5 -18 5 -16 0 -22 -2 -12 -5z"/>
<path d="M4731 3868 c-16 -26 4 -55 25 -37 18 14 18 27 1 44 -11 11 -16 10
-26 -7z"/>
<path d="M4520 3784 c0 -8 5 -12 10 -9 6 3 10 10 10 16 0 5 -4 9 -10 9 -5 0
-10 -7 -10 -16z"/>
<path d="M4495 3520 c-9 -14 1 -27 25 -33 25 -6 29 28 4 37 -21 8 -22 8 -29
-4z"/>
<path d="M4468 3243 c7 -3 16 -2 19 1 4 3 -2 6 -13 5 -11 0 -14 -3 -6 -6z"/>
<path d="M2213 3922 c-36 -11 -54 -23 -57 -37 -3 -12 -24 -31 -46 -44 -28 -15
-40 -29 -38 -41 2 -10 -5 -26 -14 -37 -24 -26 -8 -52 17 -27 10 10 26 19 36
21 10 1 34 14 55 28 20 14 43 25 50 25 8 0 14 5 14 11 0 18 87 4 110 -16 18
-16 25 -17 59 -5 23 7 47 9 58 5 13 -6 6 -10 -32 -17 -121 -21 -204 -89 -244
-197 -25 -70 -50 -95 -86 -88 -16 3 -23 1 -17 -5 5 -5 26 -11 48 -15 26 -4 52
-18 78 -42 39 -36 40 -31 4 21 -10 14 -15 33 -12 42 5 12 16 5 50 -33 50 -56
129 -95 189 -93 35 1 32 -1 -20 -12 l-60 -13 64 -2 c99 -2 137 14 208 86 35
35 67 63 73 63 15 0 12 -33 -6 -58 -19 -27 -5 -29 29 -2 14 11 30 20 35 20 21
0 24 22 5 43 -11 12 -26 38 -33 57 -15 40 -78 156 -116 214 l-26 39 27 -7 c15
-4 41 -20 59 -37 27 -26 37 -30 77 -27 36 2 45 0 41 -11 -8 -22 19 -8 37 19
15 22 15 24 -2 17 -14 -5 -17 -3 -13 11 6 19 -1 32 -25 47 -9 6 -28 18 -41 28
-34 24 -153 57 -205 57 -24 0 -43 4 -43 10 0 5 -19 9 -42 8 -24 -1 -77 1 -118
5 -56 4 -88 2 -127 -11z m327 -132 c11 -7 7 -10 -17 -10 -17 0 -35 5 -38 10
-8 13 35 13 55 0z"/>
<path d="M3128 3895 c-40 -27 -53 -31 -42 -14 4 7 1 10 -7 7 -8 -3 -18 -24
-23 -48 -9 -41 -8 -44 27 -76 44 -41 71 -45 35 -6 -52 55 -47 80 26 134 48 35
35 37 -16 3z"/>
<path d="M2930 3888 c0 -17 -6 -28 -17 -31 -17 -4 -17 -5 0 -6 11 -1 17 -9 17
-25 0 -17 -15 -35 -50 -62 -27 -21 -48 -40 -45 -42 8 -8 74 20 98 42 22 20 24
29 20 77 -6 57 -23 93 -23 47z"/>
<path d="M2974 3754 c-18 -15 -18 -15 11 -11 17 3 39 1 50 -3 l20 -9 -20 -1
c-14 -1 -10 -5 15 -15 59 -23 67 -16 26 20 -43 38 -72 44 -102 19z"/>
<path d="M3798 3316 c-21 -18 -59 -40 -85 -49 -42 -14 -44 -16 -18 -16 47 -1
102 18 132 45 17 14 21 22 11 18 -21 -7 -24 6 -6 24 25 25 2 10 -34 -22z"/>
<path d="M1293 3603 c9 -9 20 -13 24 -9 4 4 1 11 -7 16 -25 16 -35 11 -17 -7z"/>
<path d="M1481 3007 c2 -1 15 -11 29 -22 l25 -20 -19 23 c-11 12 -24 22 -29
22 -6 0 -8 -1 -6 -3z"/>
<path d="M1550 2899 c-28 -23 -162 -145 -249 -226 -31 -29 -59 -53 -63 -53 -3
0 -31 -24 -61 -54 -44 -43 -60 -53 -81 -49 l-25 5 32 47 c44 63 104 165 112
190 3 12 10 21 15 21 4 0 13 14 19 31 14 40 14 39 -3 39 -7 0 -44 -50 -82
-110 -38 -61 -87 -138 -108 -173 -40 -64 -71 -97 -91 -97 -6 0 -38 14 -70 30
-39 20 -62 27 -69 20 -13 -13 19 -37 61 -45 18 -3 38 -11 46 -18 7 -7 21 -17
32 -23 10 -6 26 -25 34 -42 12 -23 21 -30 37 -26 14 4 31 -5 53 -25 34 -32 44
-35 71 -23 18 9 25 48 10 57 -8 5 -5 14 8 29 10 11 22 29 25 39 5 14 3 16 -12
8 -10 -6 -23 -17 -30 -25 -7 -8 -20 -12 -28 -9 -9 4 -21 -1 -29 -12 -8 -10
-17 -15 -21 -12 -11 12 60 79 79 74 16 -5 31 14 33 40 1 19 66 85 79 80 16 -6
58 11 52 22 -3 5 1 14 9 21 8 7 12 16 10 20 -6 10 41 60 49 52 3 -3 6 0 6 6 0
6 17 23 37 37 21 14 34 25 30 25 -4 0 3 11 15 25 12 14 25 25 30 25 9 0 67 62
81 86 12 21 -14 17 -43 -7z m-491 -456 c-31 -32 -52 -31 -37 2 6 14 14 25 18
25 4 0 11 10 14 23 l7 22 10 -24 c8 -20 5 -29 -12 -48z"/>
<path d="M1690 2790 c-13 -9 -13 -10 0 -10 19 0 -9 -19 -124 -85 -50 -29 -128
-74 -173 -100 -46 -26 -83 -54 -83 -61 0 -8 -7 -17 -15 -20 -16 -7 -21 -24 -6
-24 5 0 96 50 203 111 106 61 199 111 206 112 6 0 12 4 12 9 0 5 4 7 9 3 5 -3
17 9 25 26 20 39 20 36 -4 42 -11 3 -20 0 -20 -6 0 -9 -2 -9 -8 0 -5 8 -13 9
-22 3z m-15 -70 c-3 -5 -12 -10 -18 -10 -7 0 -6 4 3 10 19 12 23 12 15 0z
m-35 -15 c0 -2 -10 -9 -22 -15 -22 -11 -22 -10 -4 4 21 17 26 19 26 11z m-121
-69 c-2 -2 -15 -9 -29 -15 -24 -11 -24 -11 -6 3 16 13 49 24 35 12z m-59 -31
c0 -2 -10 -9 -22 -15 -22 -11 -22 -10 -4 4 21 17 26 19 26 11z m-60 -30 c0 -7
-63 -45 -75 -45 -5 0 8 11 30 24 47 28 45 27 45 21z"/>
<path d="M1760 2756 c0 -2 7 -7 16 -10 8 -3 12 -2 9 4 -6 10 -25 14 -25 6z"/>
<path d="M954 2734 c-18 -14 -18 -15 4 -4 12 6 22 13 22 15 0 8 -5 6 -26 -11z"/>
<path d="M1594 2735 c-18 -14 -18 -14 4 -8 12 3 22 9 22 14 0 12 -3 11 -26 -6z"/>
<path d="M910 2710 c-9 -6 -10 -10 -3 -10 6 0 15 5 18 10 8 12 4 12 -15 0z"/>
<path d="M1012 2635 c2 -17 8 -25 18 -23 21 4 19 42 -2 46 -14 3 -17 -3 -16
-23z"/>
<path d="M1385 2620 c-3 -6 1 -7 9 -4 18 7 21 14 7 14 -6 0 -13 -4 -16 -10z"/>
<path d="M2000 2556 c0 -2 7 -7 16 -10 8 -3 12 -2 9 4 -6 10 -25 14 -25 6z"/>
<path d="M1332 2478 c-19 -19 -14 -30 11 -26 12 2 22 9 22 17 0 19 -18 24 -33
9z"/>
<path d="M1260 2420 c0 -11 4 -20 9 -20 11 0 22 26 14 34 -12 12 -23 5 -23
-14z"/>
<path d="M4790 2936 c0 -2 8 -10 18 -17 15 -13 16 -12 3 4 -13 16 -21 21 -21
13z"/>
<path d="M2496 2674 c-4 -10 -1 -14 6 -12 15 5 23 28 10 28 -5 0 -13 -7 -16
-16z"/>
<path d="M2410 2575 c0 -8 5 -15 10 -15 6 0 10 7 10 15 0 8 -4 15 -10 15 -5 0
-10 -7 -10 -15z"/>
<path d="M2494 2526 c-10 -17 -13 -30 -6 -41 8 -15 12 -14 37 8 19 16 26 29
22 40 -9 24 -34 21 -53 -7z"/>
<path d="M5248 2013 c7 -3 16 -2 19 1 4 3 -2 6 -13 5 -11 0 -14 -3 -6 -6z"/>
<path d="M3756 1755 c-9 -26 -7 -32 5 -12 6 10 9 21 6 23 -2 3 -7 -2 -11 -11z"/>
<path d="M3705 1680 c-3 -5 -2 -10 4 -10 5 0 13 5 16 10 3 6 2 10 -4 10 -5 0
-13 -4 -16 -10z"/>
<path d="M1465 1594 c-59 -18 -71 -29 -80 -71 -5 -25 -2 -35 16 -52 27 -25 38
-26 45 -6 8 21 24 19 25 -2 0 -12 6 -6 16 15 20 38 57 43 91 12 28 -27 28 -42
-3 -78 -21 -25 -34 -31 -90 -37 l-65 -7 0 -34 c0 -31 2 -34 28 -32 15 1 30 7
34 13 4 5 8 -2 8 -16 0 -34 10 -43 25 -22 12 16 14 16 39 0 29 -20 34 -52 12
-83 -19 -25 -96 -27 -123 -1 -11 9 -34 17 -51 17 -25 0 -33 -5 -38 -25 -5 -19
1 -31 23 -54 l30 -30 22 22 21 21 0 -36 c0 -42 15 -59 25 -28 7 23 21 26 28 8
4 -10 8 -10 15 1 6 8 15 10 22 6 8 -5 18 -2 25 8 6 8 20 15 30 14 26 -3 65 67
65 117 0 31 -7 45 -36 72 -19 19 -31 34 -25 34 6 0 19 10 31 22 17 18 20 19
20 5 0 -35 16 -15 33 43 16 55 16 62 1 100 -19 48 -52 73 -116 88 -26 7 -48
12 -50 11 -2 0 -25 -7 -53 -15z"/>
<path d="M4395 1580 c-90 -8 -130 -25 -169 -70 -63 -75 -4 -200 94 -200 22 0
22 0 4 -27 -53 -81 -84 -139 -84 -159 0 -31 20 -41 27 -15 5 20 6 20 36 -9 16
-16 33 -27 37 -25 4 3 13 32 19 65 7 33 20 68 30 78 10 9 22 27 26 40 4 14 12
21 21 18 7 -3 18 3 23 12 6 9 11 13 11 7 1 -41 24 -193 30 -205 6 -11 11 -5
17 20 9 34 10 34 21 13 8 -14 18 -20 27 -17 9 4 15 1 15 -7 0 -8 3 -9 9 -3 6
5 2 39 -10 89 -29 124 -44 286 -30 340 6 26 9 50 6 56 -7 10 -38 10 -160 -1z
m20 -107 c5 -21 8 -24 15 -13 13 22 22 6 28 -50 l5 -50 -72 0 c-68 0 -72 1
-81 26 -15 38 -12 50 14 81 20 23 26 25 40 14 13 -11 17 -11 22 3 9 24 21 19
29 -11z"/>
<path d="M1849 1438 c-33 -67 -66 -130 -75 -139 -8 -9 -28 -56 -45 -105 -47
-138 -45 -128 -21 -122 18 5 22 2 22 -18 0 -29 16 -32 23 -4 3 13 14 20 30 20
29 0 37 16 37 75 0 49 20 74 40 50 7 -9 21 -13 30 -10 12 4 19 -1 24 -17 l6
-23 21 28 c25 33 89 40 89 9 0 -10 6 -24 13 -30 6 -7 15 -43 18 -80 5 -50 8
-61 14 -44 4 14 13 21 21 18 8 -3 18 3 24 14 6 11 16 17 24 14 14 -5 26 23 26
62 0 11 -20 62 -45 113 -25 51 -50 114 -57 139 -14 59 -29 87 -71 135 -23 25
-43 37 -61 37 -24 0 -32 -11 -87 -122z m117 -63 c8 -19 12 -45 9 -58 -5 -18 0
-26 20 -37 17 -9 22 -17 16 -23 -11 -11 -147 9 -156 23 -3 4 4 18 14 31 10 13
22 35 26 49 18 60 49 66 71 15z"/>
<path d="M3815 1530 c-4 -6 -26 -10 -51 -9 -24 2 -47 0 -51 -4 -3 -4 1 -31 10
-60 20 -63 53 -252 62 -361 8 -78 8 -79 25 -56 16 22 20 23 37 10 10 -8 22
-21 26 -27 17 -27 30 -13 23 25 -4 20 -11 65 -15 99 -6 53 -5 60 7 50 11 -9
17 -7 28 7 11 16 16 17 29 6 12 -10 15 -10 15 0 0 8 8 10 28 5 15 -5 38 -8 52
-9 24 -1 25 -4 30 -85 4 -60 9 -86 19 -89 10 -3 13 3 9 27 -6 38 7 41 17 4 6
-26 7 -27 20 -10 13 18 14 17 28 -10 12 -22 17 -25 22 -12 5 15 -5 65 -42 196
-14 49 -15 65 -5 75 9 9 12 8 12 -5 0 -9 5 -17 10 -17 13 0 13 11 -5 103 -8
43 -12 95 -9 116 l6 37 -75 0 c-42 -1 -78 -4 -82 -8 -4 -4 2 -31 13 -60 11
-29 23 -77 27 -105 l7 -53 -85 0 -84 0 -5 93 c-5 88 -18 137 -38 137 -5 0 -12
-5 -15 -10z"/>
<path d="M3367 1495 c-38 -37 -74 -119 -84 -194 -3 -25 -12 -55 -19 -66 -6
-11 -15 -45 -18 -75 -4 -31 -16 -69 -26 -85 -14 -20 -20 -47 -20 -83 0 -64 19
-67 36 -6 l11 39 7 -43 c9 -47 26 -47 26 0 0 17 3 28 7 25 3 -4 12 -2 20 5 8
7 67 13 142 16 128 5 128 5 136 -19 6 -20 8 -21 12 -6 7 25 20 21 38 -10 l16
-28 -5 32 c-3 18 -1 35 4 38 6 3 10 -3 10 -15 0 -27 17 -60 32 -60 18 0 0 122
-20 140 -10 8 -26 45 -36 82 -10 37 -31 87 -46 112 -16 24 -36 70 -46 103 -21
70 -75 133 -114 133 -17 0 -40 -13 -63 -35z m100 -191 c3 -21 15 -45 25 -53
12 -8 18 -21 15 -32 -3 -11 -1 -19 4 -19 6 0 16 -15 24 -34 8 -19 19 -37 25
-41 24 -15 5 -20 -72 -20 -46 0 -98 -3 -117 -8 l-34 -7 7 67 c4 37 15 86 25
108 10 22 21 53 25 70 4 16 13 33 19 37 19 11 47 -24 54 -68z"/>
<path d="M2234 1508 c-3 -5 0 -34 7 -66 6 -31 12 -139 13 -239 1 -101 3 -183
5 -183 3 0 13 7 23 17 17 15 19 14 41 -10 12 -15 26 -27 31 -27 4 0 7 30 5 68
-2 37 -2 135 -1 217 2 131 4 147 16 126 l14 -24 11 22 c9 17 16 20 25 12 7 -6
15 -8 19 -5 12 12 67 -8 67 -24 0 -13 2 -13 14 3 11 16 14 6 20 -79 4 -54 4
-149 0 -212 -5 -79 -3 -114 4 -114 6 0 12 15 14 33 l4 32 12 -29 c10 -23 15
-26 27 -16 12 10 15 7 21 -14 3 -14 10 -23 15 -20 13 8 11 66 -6 149 -11 53
-13 84 -6 107 5 18 10 25 10 16 1 -9 6 -20 11 -23 7 -5 10 26 9 92 0 54 2 115
6 136 l7 38 -38 -2 c-22 -1 -79 5 -129 14 -92 17 -262 20 -271 5z"/>
<path d="M2876 1498 c-7 -13 -31 -68 -51 -123 -21 -55 -47 -113 -58 -128 -10
-15 -26 -60 -34 -100 -8 -39 -19 -79 -24 -89 -16 -30 -11 -50 11 -43 15 5 20
2 20 -14 0 -30 17 -34 24 -6 5 18 12 24 28 22 16 -1 23 5 29 28 5 17 6 38 3
48 -8 24 3 67 17 67 6 0 17 -7 26 -15 11 -11 19 -13 28 -5 9 8 14 5 19 -12 l6
-23 22 27 c13 15 35 30 50 34 23 5 29 2 37 -19 5 -14 15 -28 20 -32 6 -3 11
-21 11 -39 0 -47 11 -96 21 -96 5 0 9 9 9 20 0 13 7 20 20 20 14 0 20 7 20 21
0 17 3 19 13 10 20 -16 27 -4 27 43 0 30 -14 64 -54 135 -30 53 -61 119 -70
148 -12 37 -31 64 -66 97 -54 51 -82 57 -104 24z m70 -153 c9 -14 17 -39 18
-56 1 -19 10 -37 25 -49 l24 -18 -29 -6 c-16 -4 -53 -2 -83 4 -29 5 -56 10
-58 10 -3 0 4 16 16 36 12 19 21 42 21 51 0 18 28 53 41 53 5 0 16 -11 25 -25z"/>
<path d="M4160 1223 c0 -13 5 -23 10 -23 13 0 13 11 0 30 -8 12 -10 11 -10 -7z"/>
<path d="M2640 1171 c0 -12 5 -21 10 -21 6 0 10 6 10 14 0 8 -4 18 -10 21 -5
3 -10 -3 -10 -14z"/>
<path d="M1582 1047 c-18 -49 -16 -79 6 -75 20 4 28 51 15 86 -8 22 -9 21 -21
-11z"/>
<path d="M4257 1064 c-11 -11 -8 -62 4 -70 22 -13 33 14 18 47 -8 16 -18 27
-22 23z"/>
<path d="M2133 1016 c-11 -37 -8 -46 14 -46 14 0 18 47 5 68 -6 8 -12 1 -19
-22z"/>
<path d="M3146 997 c-9 -35 -7 -47 9 -47 10 0 15 10 15 29 0 37 -16 49 -24 18z"/>
<path d="M4116 979 c-7 -37 -1 -49 25 -49 21 0 26 29 9 61 -15 28 -27 24 -34
-12z"/>
<path d="M3794 987 c-7 -20 1 -47 16 -47 12 0 13 30 0 50 -8 12 -10 12 -16 -3z"/>
<path d="M2257 983 c-13 -12 -7 -43 8 -43 8 0 15 6 15 13 0 18 -15 38 -23 30z"/>
<path d="M3290 966 c0 -9 7 -16 16 -16 17 0 14 22 -4 28 -7 2 -12 -3 -12 -12z"/>
<path d="M3598 952 c-5 -37 0 -52 19 -52 12 0 14 7 9 32 -9 45 -23 55 -28 20z"/>
<path d="M2580 951 c-15 -30 -9 -65 13 -69 13 -3 17 3 17 30 0 48 -15 67 -30
39z"/>
<path d="M2776 898 c-7 -35 7 -59 25 -41 12 12 3 73 -11 73 -4 0 -10 -14 -14
-32z"/>
<path d="M3256 895 c-8 -30 -1 -45 20 -45 15 0 17 12 8 48 -8 29 -20 28 -28
-3z"/>
<path d="M780 4542 c0 -11 174 -221 181 -219 4 1 16 -7 28 -17 47 -43 15 3
-85 120 -95 112 -124 139 -124 116z m110 -112 c44 -55 79 -100 76 -100 -5 0
-147 166 -160 188 -21 34 10 2 84 -88z"/>
</g>
</svg>
